<?xml version="1.0" standalone="no"?><!DOCTYPE svg PUBLIC "-//W3C//DTD SVG 1.1//EN" "http://www.w3.org/Graphics/SVG/1.1/DTD/svg11.dtd"><svg t="1646637659285" class="icon" viewBox="0 0 1024 1024" version="1.1" xmlns="http://www.w3.org/2000/svg" p-id="1745" xmlns:xlink="http://www.w3.org/1999/xlink" width="200" height="200"><defs><style type="text/css"></style></defs><path d="M603.132 677.8h-41.99s-5.386-3.332-5.386-12.723v-88.09l-47.357 0.604v98.002s4.564 25.895 38.896 25.895h79.526V583.067h-23.69V677.8z m-142.11-94.733h-44.415s-40.995-1.622-55.36 44.867c-4.975 31.023 4.458 42.858 6.102 46.772 1.665 3.872 14.904 26.783 48.155 26.783h69.205V523.293l-23.688-0.52v60.294z m0 94.733h-35.024s-21.57-0.607-28.211-25.442c-3.332-11.097 0.52-21.7 2.25-26.694 1.622-4.978 8.848-18.91 23.774-18.91h37.211V677.8z m50.492-611.108C265.582 66.692 66.228 266.068 66.228 512s199.355 445.308 445.286 445.308S956.799 757.932 956.799 512 757.446 66.692 511.514 66.692z m27.151 236.326c3.547-32.385 42.272-82.078 73.317-74.982 30.935 7.053 59.168 48.113 53.435 83.42-5.582 35.37-33.683 82.035-77.407 76.324-43.656-5.582-53.543-45.128-49.345-84.762z m-91.575-89.13c32.71 0 59.167 37.664 59.167 84.155 0 46.534-26.457 84.199-59.167 84.199-32.667 0-59.168-37.664-59.168-84.199 0-46.49 26.5-84.155 59.168-84.155zM262.554 413.285s6.989-69.292 54.928-73.577c38.096-3.265 66.135 38.422 69.055 62.263 1.796 15.467 9.842 86.252-49.39 98.995-59.103 12.7-81.081-55.684-74.593-87.681z m450.888 298.394c-32.407 76.365-150.83 36.69-150.83 36.69s-43.677-14.019-94.343-2.792c-50.688 11.338-94.389 7.03-94.389 7.03s-59.277 1.43-76.173-73.466c-16.874-74.983 59.168-116.043 64.86-123.03 5.602-7.096 45.082-33.943 70.395-76.346 25.44-42.445 101.505-76.388 155.048 7.01 39.483 56.593 107.131 108.947 107.131 108.947s50.666 39.612 18.3 115.957z m-9.886-173.98c-64.879 1.474-67.626-43.829-67.626-76.279 0-34.009 6.987-82.1 59.212-82.1 52.137 0 66.177 50.946 66.177 67.865 0 17.027 7.117 89.088-57.763 90.514z" p-id="1746" fill="#ffffff"></path></svg>