<?xml version="1.0" standalone="no"?><!DOCTYPE svg PUBLIC "-//W3C//DTD SVG 1.1//EN" "http://www.w3.org/Graphics/SVG/1.1/DTD/svg11.dtd"><svg t="1646585329600" class="icon" viewBox="0 0 1024 1024" version="1.1" xmlns="http://www.w3.org/2000/svg" p-id="1453" xmlns:xlink="http://www.w3.org/1999/xlink" width="200" height="200"><defs><style type="text/css"></style></defs><path d="M477.14 854.79c-217.11 0-393.74-176.63-393.74-393.74 0-217.1 176.63-393.73 393.74-393.73 217.1 0 393.73 176.63 393.73 393.73 0 217.11-176.63 393.74-393.73 393.74z m0-721.72c-180.86 0-327.99 147.13-327.99 327.98s147.14 327.99 327.99 327.99S805.12 641.9 805.12 461.05 658 133.07 477.14 133.07z" fill="#99CCCC" p-id="1454"></path><path d="M872.89 946.09L696.43 775.03c-15.45-14.98-15.45-39.27 0-54.25 15.45-14.98 40.51-14.98 55.96 0l176.46 171.06c15.45 14.98 15.45 39.27 0 54.25-15.45 14.98-40.51 14.98-55.96 0z" fill="#99CCCC" p-id="1455"></path></svg>